<svg xmlns="http://www.w3.org/2000/svg" viewBox="5.664 5.282 4.175 2.691" role="img" aria-label="AXIOMTEK">
  <title>AXIOMTEK</title>
  <rect x="5.724" y="5.342" width="4.055" height="2.571" rx="0.62" fill="#ffffff"/>
  <path fill="#75073C" d="M9.021,5.282c0,0,0.106,0,0.194,0.012L9.209,5.306L8.497,6.357v-0.3L9.021,5.282L9.021,5.282z M8.497,7.97 h0.636c0.385,0,0.706-0.318,0.706-0.706V5.985c0-0.246-0.127-0.464-0.324-0.588l0,0l0,0L8.624,6.718l0.582,0.849H8.749L8.497,7.2 V7.97L8.497,7.97z M8.497,5.521l0.161-0.239H8.497V5.521z M8.497,6.357L7.412,7.97l0,0H7.209L8.5,6.058v0.3H8.497z M8.497,5.282 H6.37c-0.388,0-0.706,0.318-0.706,0.706v1.279c0,0.385,0.315,0.706,0.706,0.706h0.476l1.079-1.6L7.709,6.055L6.682,7.573H6.242 L7.485,5.73h0.455l0.209,0.306l0.346-0.509V5.282H8.497z M8.497,7.203l-0.1-0.146L7.779,7.97l0,0h0.718V7.203z"/>
</svg>
